<svg id="Layer_1" data-name="Layer 1" xmlns="http://www.w3.org/2000/svg" viewBox="0 0 1472 649"><text transform="translate(352.69 393.35)" style="font-size:247.8231201171875px;fill:#e8ebed;font-family:Montserrat-ExtraBold, Montserrat;font-weight:800"><tspan style="letter-spacing:-0.009993266563785146em">f</tspan><tspan x="98.14" y="0">ast</tspan><tspan x="500.1" y="0" style="letter-spacing:0.007997371644795723em">h</tspan><tspan x="674.57" y="0" style="letter-spacing:-0.000003940562525151872em">ost</tspan></text><path d="M750.79,379.62C723.31,514,604.46,615,462,615c-141,0-258.93-99-287.93-231.36C80.94,365.23,21.83,337.76,21.83,307.08c0-31.5,62.3-59.61,159.76-78C220,110.88,331,25.45,462,25.45c132.44,0,244.47,87.33,281.66,207.54-14.73-3.14-30.4-6-46.9-8.69A227.93,227.93,0,0,0,283.91,399.46c22.84,101.71,113.71,177.7,222.31,177.7,114.16,0,208.71-84,225.27-193.49Q741.41,381.72,750.79,379.62Z" style="fill:#f0ad4e"/></svg>